<mxfile host="app.diagrams.net" agent="Mozilla/5.0 (Windows NT 10.0; Win64; x64) AppleWebKit/537.36 (KHTML, like Gecko) Chrome/134.0.0.0 Safari/537.36 Edg/134.0.0.0" version="26.2.5" pages="3">
  <diagram name="第 1 页" id="ARpZnLf89aFGDRDLgZmb">
    <mxGraphModel dx="1635" dy="1404" grid="1" gridSize="10" guides="1" tooltips="1" connect="1" arrows="1" fold="1" page="0" pageScale="1" pageWidth="827" pageHeight="1169" background="#FFFFFF" math="0" shadow="0" adaptiveColors="none">
      <root>
        <mxCell id="0" />
        <mxCell id="1" parent="0" />
        <mxCell id="z7iYueGVClakvq6g5EIx-85" style="edgeStyle=orthogonalEdgeStyle;rounded=0;orthogonalLoop=1;jettySize=auto;html=1;exitX=0.5;exitY=1;exitDx=0;exitDy=0;entryX=0.5;entryY=0;entryDx=0;entryDy=0;" parent="1" source="z7iYueGVClakvq6g5EIx-68" target="z7iYueGVClakvq6g5EIx-69" edge="1">
          <mxGeometry relative="1" as="geometry" />
        </mxCell>
        <mxCell id="z7iYueGVClakvq6g5EIx-68" value="开始" style="rounded=0;whiteSpace=wrap;html=1;" parent="1" vertex="1">
          <mxGeometry x="720" y="-310" width="120" height="60" as="geometry" />
        </mxCell>
        <mxCell id="z7iYueGVClakvq6g5EIx-86" style="edgeStyle=orthogonalEdgeStyle;rounded=0;orthogonalLoop=1;jettySize=auto;html=1;exitX=0.5;exitY=1;exitDx=0;exitDy=0;entryX=0.5;entryY=0;entryDx=0;entryDy=0;" parent="1" source="z7iYueGVClakvq6g5EIx-69" target="z7iYueGVClakvq6g5EIx-70" edge="1">
          <mxGeometry relative="1" as="geometry" />
        </mxCell>
        <mxCell id="z7iYueGVClakvq6g5EIx-69" value="数据采集模块" style="rounded=0;whiteSpace=wrap;html=1;" parent="1" vertex="1">
          <mxGeometry x="720" y="-210" width="120" height="60" as="geometry" />
        </mxCell>
        <mxCell id="z7iYueGVClakvq6g5EIx-87" style="edgeStyle=orthogonalEdgeStyle;rounded=0;orthogonalLoop=1;jettySize=auto;html=1;exitX=0;exitY=0.5;exitDx=0;exitDy=0;entryX=0.5;entryY=0;entryDx=0;entryDy=0;" parent="1" source="z7iYueGVClakvq6g5EIx-70" target="z7iYueGVClakvq6g5EIx-71" edge="1">
          <mxGeometry relative="1" as="geometry" />
        </mxCell>
        <mxCell id="z7iYueGVClakvq6g5EIx-109" value="false" style="edgeLabel;html=1;align=center;verticalAlign=middle;resizable=0;points=[];" parent="z7iYueGVClakvq6g5EIx-87" vertex="1" connectable="0">
          <mxGeometry x="-0.4115" y="-4" relative="1" as="geometry">
            <mxPoint as="offset" />
          </mxGeometry>
        </mxCell>
        <mxCell id="z7iYueGVClakvq6g5EIx-90" style="edgeStyle=orthogonalEdgeStyle;rounded=0;orthogonalLoop=1;jettySize=auto;html=1;exitX=1;exitY=0.5;exitDx=0;exitDy=0;entryX=0.5;entryY=0;entryDx=0;entryDy=0;" parent="1" source="z7iYueGVClakvq6g5EIx-70" target="z7iYueGVClakvq6g5EIx-73" edge="1">
          <mxGeometry relative="1" as="geometry" />
        </mxCell>
        <mxCell id="z7iYueGVClakvq6g5EIx-110" value="true" style="edgeLabel;html=1;align=center;verticalAlign=middle;resizable=0;points=[];" parent="z7iYueGVClakvq6g5EIx-90" vertex="1" connectable="0">
          <mxGeometry x="-0.5527" y="1" relative="1" as="geometry">
            <mxPoint as="offset" />
          </mxGeometry>
        </mxCell>
        <mxCell id="z7iYueGVClakvq6g5EIx-70" value="第三方API调用" style="rhombus;whiteSpace=wrap;html=1;" parent="1" vertex="1">
          <mxGeometry x="710" y="-110" width="140" height="80" as="geometry" />
        </mxCell>
        <mxCell id="z7iYueGVClakvq6g5EIx-88" style="edgeStyle=orthogonalEdgeStyle;rounded=0;orthogonalLoop=1;jettySize=auto;html=1;exitX=0.5;exitY=1;exitDx=0;exitDy=0;entryX=0.5;entryY=0;entryDx=0;entryDy=0;" parent="1" source="z7iYueGVClakvq6g5EIx-71" target="z7iYueGVClakvq6g5EIx-72" edge="1">
          <mxGeometry relative="1" as="geometry" />
        </mxCell>
        <mxCell id="z7iYueGVClakvq6g5EIx-71" value="记录错误日志" style="rounded=0;whiteSpace=wrap;html=1;" parent="1" vertex="1">
          <mxGeometry x="590" y="-10" width="120" height="60" as="geometry" />
        </mxCell>
        <mxCell id="z7iYueGVClakvq6g5EIx-89" style="edgeStyle=orthogonalEdgeStyle;rounded=0;orthogonalLoop=1;jettySize=auto;html=1;exitX=0.5;exitY=1;exitDx=0;exitDy=0;entryX=0.5;entryY=1;entryDx=0;entryDy=0;" parent="1" source="z7iYueGVClakvq6g5EIx-72" target="z7iYueGVClakvq6g5EIx-70" edge="1">
          <mxGeometry relative="1" as="geometry" />
        </mxCell>
        <mxCell id="z7iYueGVClakvq6g5EIx-72" value="等待重新调试" style="rounded=0;whiteSpace=wrap;html=1;" parent="1" vertex="1">
          <mxGeometry x="590" y="100" width="120" height="60" as="geometry" />
        </mxCell>
        <mxCell id="z7iYueGVClakvq6g5EIx-91" style="edgeStyle=orthogonalEdgeStyle;rounded=0;orthogonalLoop=1;jettySize=auto;html=1;exitX=0.5;exitY=1;exitDx=0;exitDy=0;" parent="1" source="z7iYueGVClakvq6g5EIx-73" target="z7iYueGVClakvq6g5EIx-74" edge="1">
          <mxGeometry relative="1" as="geometry" />
        </mxCell>
        <mxCell id="z7iYueGVClakvq6g5EIx-73" value="数据清洗" style="rounded=0;whiteSpace=wrap;html=1;" parent="1" vertex="1">
          <mxGeometry x="840" y="-10" width="120" height="60" as="geometry" />
        </mxCell>
        <mxCell id="z7iYueGVClakvq6g5EIx-92" style="edgeStyle=orthogonalEdgeStyle;rounded=0;orthogonalLoop=1;jettySize=auto;html=1;exitX=1;exitY=0.5;exitDx=0;exitDy=0;entryX=0;entryY=0.5;entryDx=0;entryDy=0;" parent="1" source="z7iYueGVClakvq6g5EIx-74" target="z7iYueGVClakvq6g5EIx-75" edge="1">
          <mxGeometry relative="1" as="geometry" />
        </mxCell>
        <mxCell id="z7iYueGVClakvq6g5EIx-74" value="AQI标准化计算" style="rounded=0;whiteSpace=wrap;html=1;" parent="1" vertex="1">
          <mxGeometry x="840" y="100" width="120" height="60" as="geometry" />
        </mxCell>
        <mxCell id="z7iYueGVClakvq6g5EIx-96" style="edgeStyle=orthogonalEdgeStyle;rounded=0;orthogonalLoop=1;jettySize=auto;html=1;exitX=0.5;exitY=1;exitDx=0;exitDy=0;entryX=0.5;entryY=0;entryDx=0;entryDy=0;" parent="1" source="z7iYueGVClakvq6g5EIx-75" target="z7iYueGVClakvq6g5EIx-77" edge="1">
          <mxGeometry relative="1" as="geometry" />
        </mxCell>
        <mxCell id="z7iYueGVClakvq6g5EIx-75" value="存储到MySQL" style="rounded=0;whiteSpace=wrap;html=1;" parent="1" vertex="1">
          <mxGeometry x="990" y="100" width="120" height="60" as="geometry" />
        </mxCell>
        <mxCell id="z7iYueGVClakvq6g5EIx-97" value="" style="edgeStyle=orthogonalEdgeStyle;rounded=0;orthogonalLoop=1;jettySize=auto;html=1;" parent="1" source="z7iYueGVClakvq6g5EIx-77" target="z7iYueGVClakvq6g5EIx-78" edge="1">
          <mxGeometry relative="1" as="geometry" />
        </mxCell>
        <mxCell id="z7iYueGVClakvq6g5EIx-77" value="页面生成" style="rounded=0;whiteSpace=wrap;html=1;" parent="1" vertex="1">
          <mxGeometry x="990" y="200" width="120" height="60" as="geometry" />
        </mxCell>
        <mxCell id="z7iYueGVClakvq6g5EIx-98" value="" style="edgeStyle=orthogonalEdgeStyle;rounded=0;orthogonalLoop=1;jettySize=auto;html=1;" parent="1" source="z7iYueGVClakvq6g5EIx-78" target="z7iYueGVClakvq6g5EIx-81" edge="1">
          <mxGeometry relative="1" as="geometry" />
        </mxCell>
        <mxCell id="z7iYueGVClakvq6g5EIx-78" value="发布到web服务器" style="rounded=0;whiteSpace=wrap;html=1;" parent="1" vertex="1">
          <mxGeometry x="990" y="300" width="120" height="60" as="geometry" />
        </mxCell>
        <mxCell id="z7iYueGVClakvq6g5EIx-107" style="edgeStyle=orthogonalEdgeStyle;rounded=0;orthogonalLoop=1;jettySize=auto;html=1;exitX=0.5;exitY=1;exitDx=0;exitDy=0;entryX=0.5;entryY=0;entryDx=0;entryDy=0;" parent="1" source="z7iYueGVClakvq6g5EIx-79" target="z7iYueGVClakvq6g5EIx-84" edge="1">
          <mxGeometry relative="1" as="geometry">
            <Array as="points">
              <mxPoint x="930" y="660" />
              <mxPoint x="1050" y="660" />
            </Array>
          </mxGeometry>
        </mxCell>
        <mxCell id="z7iYueGVClakvq6g5EIx-79" value="查看数据" style="rounded=0;whiteSpace=wrap;html=1;" parent="1" vertex="1">
          <mxGeometry x="870" y="510" width="120" height="60" as="geometry" />
        </mxCell>
        <mxCell id="z7iYueGVClakvq6g5EIx-99" style="edgeStyle=orthogonalEdgeStyle;rounded=0;orthogonalLoop=1;jettySize=auto;html=1;exitX=0;exitY=0.5;exitDx=0;exitDy=0;" parent="1" source="z7iYueGVClakvq6g5EIx-81" target="z7iYueGVClakvq6g5EIx-79" edge="1">
          <mxGeometry relative="1" as="geometry" />
        </mxCell>
        <mxCell id="z7iYueGVClakvq6g5EIx-118" value="用户" style="edgeLabel;html=1;align=center;verticalAlign=middle;resizable=0;points=[];" parent="z7iYueGVClakvq6g5EIx-99" vertex="1" connectable="0">
          <mxGeometry x="-0.4916" y="-4" relative="1" as="geometry">
            <mxPoint x="1" as="offset" />
          </mxGeometry>
        </mxCell>
        <mxCell id="z7iYueGVClakvq6g5EIx-108" style="edgeStyle=orthogonalEdgeStyle;rounded=0;orthogonalLoop=1;jettySize=auto;html=1;entryX=0.5;entryY=0;entryDx=0;entryDy=0;" parent="1" source="z7iYueGVClakvq6g5EIx-81" target="z7iYueGVClakvq6g5EIx-82" edge="1">
          <mxGeometry relative="1" as="geometry" />
        </mxCell>
        <mxCell id="z7iYueGVClakvq6g5EIx-115" value="管理员" style="edgeLabel;html=1;align=center;verticalAlign=middle;resizable=0;points=[];" parent="z7iYueGVClakvq6g5EIx-108" vertex="1" connectable="0">
          <mxGeometry x="-0.4461" y="3" relative="1" as="geometry">
            <mxPoint as="offset" />
          </mxGeometry>
        </mxCell>
        <mxCell id="z7iYueGVClakvq6g5EIx-81" value="用户访问" style="rhombus;whiteSpace=wrap;html=1;" parent="1" vertex="1">
          <mxGeometry x="1010" y="390" width="80" height="80" as="geometry" />
        </mxCell>
        <mxCell id="z7iYueGVClakvq6g5EIx-105" style="edgeStyle=orthogonalEdgeStyle;rounded=0;orthogonalLoop=1;jettySize=auto;html=1;exitX=0.5;exitY=1;exitDx=0;exitDy=0;entryX=0.5;entryY=0;entryDx=0;entryDy=0;" parent="1" source="z7iYueGVClakvq6g5EIx-82" target="z7iYueGVClakvq6g5EIx-83" edge="1">
          <mxGeometry relative="1" as="geometry" />
        </mxCell>
        <mxCell id="z7iYueGVClakvq6g5EIx-82" value="登录后台" style="rounded=0;whiteSpace=wrap;html=1;" parent="1" vertex="1">
          <mxGeometry x="1110" y="470" width="120" height="60" as="geometry" />
        </mxCell>
        <mxCell id="z7iYueGVClakvq6g5EIx-84" value="结束" style="rounded=0;whiteSpace=wrap;html=1;" parent="1" vertex="1">
          <mxGeometry x="990" y="690" width="120" height="60" as="geometry" />
        </mxCell>
        <mxCell id="z7iYueGVClakvq6g5EIx-106" style="edgeStyle=orthogonalEdgeStyle;rounded=0;orthogonalLoop=1;jettySize=auto;html=1;exitX=0.5;exitY=1;exitDx=0;exitDy=0;entryX=0.5;entryY=0;entryDx=0;entryDy=0;" parent="1" source="z7iYueGVClakvq6g5EIx-83" target="z7iYueGVClakvq6g5EIx-84" edge="1">
          <mxGeometry relative="1" as="geometry">
            <Array as="points">
              <mxPoint x="1170" y="660" />
              <mxPoint x="1050" y="660" />
            </Array>
          </mxGeometry>
        </mxCell>
        <mxCell id="z7iYueGVClakvq6g5EIx-83" value="基础账号管理" style="rounded=0;whiteSpace=wrap;html=1;" parent="1" vertex="1">
          <mxGeometry x="1110" y="570" width="120" height="60" as="geometry" />
        </mxCell>
        <mxCell id="khz72lxjm5RO3viv7EBZ-1" value="" style="html=1;dashed=0;whiteSpace=wrap;" parent="1" vertex="1">
          <mxGeometry x="65" y="-687" width="340" height="400" as="geometry" />
        </mxCell>
        <mxCell id="khz72lxjm5RO3viv7EBZ-2" value="" style="html=1;dashed=0;whiteSpace=wrap;" parent="1" vertex="1">
          <mxGeometry x="65" y="-627" width="340" height="340" as="geometry" />
        </mxCell>
        <mxCell id="khz72lxjm5RO3viv7EBZ-3" value="空气质量数据采集模块" style="html=1;dashed=0;whiteSpace=wrap;" parent="1" vertex="1">
          <mxGeometry x="65" y="-687" width="340" height="60" as="geometry" />
        </mxCell>
        <mxCell id="khz72lxjm5RO3viv7EBZ-4" value="API调用子模块" style="html=1;dashed=0;whiteSpace=wrap;" parent="1" vertex="1">
          <mxGeometry x="65" y="-627" width="340" height="50" as="geometry" />
        </mxCell>
        <mxCell id="khz72lxjm5RO3viv7EBZ-5" value="判断节点状态" style="html=1;dashed=0;whiteSpace=wrap;" parent="1" vertex="1">
          <mxGeometry x="65" y="-577" width="340" height="100" as="geometry" />
        </mxCell>
        <mxCell id="khz72lxjm5RO3viv7EBZ-10" value="" style="rounded=0;whiteSpace=wrap;html=1;" parent="1" vertex="1">
          <mxGeometry x="65" y="-477" width="340" height="60" as="geometry" />
        </mxCell>
        <mxCell id="khz72lxjm5RO3viv7EBZ-12" value="" style="endArrow=none;html=1;rounded=0;entryX=0.5;entryY=0;entryDx=0;entryDy=0;exitX=0.5;exitY=1;exitDx=0;exitDy=0;" parent="1" source="khz72lxjm5RO3viv7EBZ-10" target="khz72lxjm5RO3viv7EBZ-10" edge="1">
          <mxGeometry width="50" height="50" relative="1" as="geometry">
            <mxPoint x="175" y="-427" as="sourcePoint" />
            <mxPoint x="225" y="-477" as="targetPoint" />
          </mxGeometry>
        </mxCell>
        <mxCell id="khz72lxjm5RO3viv7EBZ-13" value="" style="endArrow=none;html=1;rounded=0;entryX=0;entryY=0;entryDx=0;entryDy=0;exitX=0.5;exitY=1;exitDx=0;exitDy=0;" parent="1" source="khz72lxjm5RO3viv7EBZ-5" target="khz72lxjm5RO3viv7EBZ-5" edge="1">
          <mxGeometry width="50" height="50" relative="1" as="geometry">
            <mxPoint x="175" y="-427" as="sourcePoint" />
            <mxPoint x="225" y="-477" as="targetPoint" />
          </mxGeometry>
        </mxCell>
        <mxCell id="khz72lxjm5RO3viv7EBZ-14" value="" style="endArrow=none;html=1;rounded=0;entryX=1;entryY=0;entryDx=0;entryDy=0;exitX=0.5;exitY=0;exitDx=0;exitDy=0;" parent="1" source="khz72lxjm5RO3viv7EBZ-10" target="khz72lxjm5RO3viv7EBZ-5" edge="1">
          <mxGeometry width="50" height="50" relative="1" as="geometry">
            <mxPoint x="175" y="-427" as="sourcePoint" />
            <mxPoint x="225" y="-477" as="targetPoint" />
          </mxGeometry>
        </mxCell>
        <mxCell id="khz72lxjm5RO3viv7EBZ-15" value="采集信息" style="rounded=0;whiteSpace=wrap;html=1;" parent="1" vertex="1">
          <mxGeometry x="65" y="-477" width="170" height="60" as="geometry" />
        </mxCell>
        <mxCell id="khz72lxjm5RO3viv7EBZ-16" value="错误处理" style="rounded=0;whiteSpace=wrap;html=1;" parent="1" vertex="1">
          <mxGeometry x="235" y="-477" width="170" height="60" as="geometry" />
        </mxCell>
        <mxCell id="khz72lxjm5RO3viv7EBZ-19" style="edgeStyle=orthogonalEdgeStyle;rounded=0;orthogonalLoop=1;jettySize=auto;html=1;exitX=0.5;exitY=1;exitDx=0;exitDy=0;" parent="1" source="khz72lxjm5RO3viv7EBZ-2" target="khz72lxjm5RO3viv7EBZ-2" edge="1">
          <mxGeometry relative="1" as="geometry" />
        </mxCell>
        <mxCell id="khz72lxjm5RO3viv7EBZ-20" value="循环控制中心&lt;div&gt;&lt;div&gt;正常间隔：1小时&lt;/div&gt;&lt;div&gt;&lt;span style=&quot;background-color: transparent; color: light-dark(rgb(0, 0, 0), rgb(255, 255, 255));&quot;&gt;重试时间：5分钟&lt;/span&gt;&lt;/div&gt;&lt;div&gt;最大重试：3次&lt;/div&gt;&lt;/div&gt;" style="rounded=0;whiteSpace=wrap;html=1;" parent="1" vertex="1">
          <mxGeometry x="65" y="-417" width="340" height="130" as="geometry" />
        </mxCell>
        <mxCell id="khz72lxjm5RO3viv7EBZ-21" value="" style="rounded=0;whiteSpace=wrap;html=1;" parent="1" vertex="1">
          <mxGeometry x="27" y="-204" width="340" height="540" as="geometry" />
        </mxCell>
        <mxCell id="khz72lxjm5RO3viv7EBZ-22" value="数据清洗模块盒图" style="rounded=0;whiteSpace=wrap;html=1;" parent="1" vertex="1">
          <mxGeometry x="27" y="-204" width="340" height="60" as="geometry" />
        </mxCell>
        <mxCell id="khz72lxjm5RO3viv7EBZ-24" value="质量循环控制" style="rounded=0;whiteSpace=wrap;html=1;" parent="1" vertex="1">
          <mxGeometry x="197" y="-144" width="170" height="60" as="geometry" />
        </mxCell>
        <mxCell id="khz72lxjm5RO3viv7EBZ-25" value="主清洗流程" style="rounded=0;whiteSpace=wrap;html=1;" parent="1" vertex="1">
          <mxGeometry x="27" y="-144" width="170" height="60" as="geometry" />
        </mxCell>
        <mxCell id="khz72lxjm5RO3viv7EBZ-27" value="数据输入" style="rounded=0;whiteSpace=wrap;html=1;" parent="1" vertex="1">
          <mxGeometry x="27" y="-84" width="170" height="60" as="geometry" />
        </mxCell>
        <mxCell id="hy1C9iSK5-kPFBmdTb-A-1" value="质量评分" style="rounded=0;whiteSpace=wrap;html=1;" vertex="1" parent="1">
          <mxGeometry x="197" y="-84" width="170" height="60" as="geometry" />
        </mxCell>
        <mxCell id="hy1C9iSK5-kPFBmdTb-A-2" value="是否达标" style="rounded=0;whiteSpace=wrap;html=1;" vertex="1" parent="1">
          <mxGeometry x="27" y="-24" width="340" height="90" as="geometry" />
        </mxCell>
        <mxCell id="hy1C9iSK5-kPFBmdTb-A-5" value="" style="endArrow=none;html=1;rounded=0;entryX=0;entryY=0;entryDx=0;entryDy=0;exitX=0.5;exitY=1;exitDx=0;exitDy=0;" edge="1" parent="1" source="hy1C9iSK5-kPFBmdTb-A-2" target="hy1C9iSK5-kPFBmdTb-A-2">
          <mxGeometry width="50" height="50" relative="1" as="geometry">
            <mxPoint x="217" y="-484" as="sourcePoint" />
            <mxPoint x="47" y="-584" as="targetPoint" />
            <Array as="points" />
          </mxGeometry>
        </mxCell>
        <mxCell id="hy1C9iSK5-kPFBmdTb-A-6" value="" style="endArrow=none;html=1;rounded=0;entryX=1;entryY=0;entryDx=0;entryDy=0;" edge="1" parent="1" target="hy1C9iSK5-kPFBmdTb-A-2">
          <mxGeometry width="50" height="50" relative="1" as="geometry">
            <mxPoint x="197" y="66" as="sourcePoint" />
            <mxPoint x="37" y="-14" as="targetPoint" />
            <Array as="points" />
          </mxGeometry>
        </mxCell>
        <mxCell id="hy1C9iSK5-kPFBmdTb-A-7" value="参数调整" style="rounded=0;whiteSpace=wrap;html=1;" vertex="1" parent="1">
          <mxGeometry x="27" y="66" width="170" height="60" as="geometry" />
        </mxCell>
        <mxCell id="hy1C9iSK5-kPFBmdTb-A-8" value="重新清洗" style="rounded=0;whiteSpace=wrap;html=1;" vertex="1" parent="1">
          <mxGeometry x="197" y="66" width="170" height="60" as="geometry" />
        </mxCell>
        <mxCell id="hy1C9iSK5-kPFBmdTb-A-9" value="清洗后数据输出" style="rounded=0;whiteSpace=wrap;html=1;" vertex="1" parent="1">
          <mxGeometry x="27" y="126" width="340" height="60" as="geometry" />
        </mxCell>
        <mxCell id="hy1C9iSK5-kPFBmdTb-A-10" value="质量控制循环&lt;div&gt;while 数据质量&amp;lt;阙值：&lt;/div&gt;&lt;div&gt;调整清洗参数&lt;/div&gt;&lt;div&gt;重新处理批次&lt;/div&gt;&lt;div&gt;更新质量评分&lt;/div&gt;" style="rounded=0;whiteSpace=wrap;html=1;" vertex="1" parent="1">
          <mxGeometry x="27" y="186" width="340" height="150" as="geometry" />
        </mxCell>
        <mxCell id="hy1C9iSK5-kPFBmdTb-A-13" value="TRUE" style="text;html=1;align=center;verticalAlign=middle;whiteSpace=wrap;rounded=0;" vertex="1" parent="1">
          <mxGeometry x="51" y="21" width="60" height="30" as="geometry" />
        </mxCell>
        <mxCell id="hy1C9iSK5-kPFBmdTb-A-14" value="FALSE" style="text;html=1;align=center;verticalAlign=middle;whiteSpace=wrap;rounded=0;" vertex="1" parent="1">
          <mxGeometry x="281" y="21" width="60" height="30" as="geometry" />
        </mxCell>
        <mxCell id="hy1C9iSK5-kPFBmdTb-A-15" value="TRUE" style="text;html=1;align=center;verticalAlign=middle;whiteSpace=wrap;rounded=0;" vertex="1" parent="1">
          <mxGeometry x="92" y="-526" width="60" height="30" as="geometry" />
        </mxCell>
        <mxCell id="hy1C9iSK5-kPFBmdTb-A-16" value="FALSE" style="text;html=1;align=center;verticalAlign=middle;whiteSpace=wrap;rounded=0;" vertex="1" parent="1">
          <mxGeometry x="327" y="-526" width="60" height="30" as="geometry" />
        </mxCell>
        <mxCell id="hy1C9iSK5-kPFBmdTb-A-17" value="" style="endArrow=none;html=1;rounded=0;" edge="1" parent="1">
          <mxGeometry width="50" height="50" relative="1" as="geometry">
            <mxPoint x="-39" y="820" as="sourcePoint" />
            <mxPoint x="-39" y="426" as="targetPoint" />
          </mxGeometry>
        </mxCell>
        <mxCell id="hy1C9iSK5-kPFBmdTb-A-18" value="" style="rounded=0;whiteSpace=wrap;html=1;" vertex="1" parent="1">
          <mxGeometry x="-40" y="530" width="120" height="60" as="geometry" />
        </mxCell>
        <mxCell id="hy1C9iSK5-kPFBmdTb-A-20" value="" style="endArrow=none;html=1;rounded=0;entryX=0.75;entryY=0;entryDx=0;entryDy=0;exitX=0.75;exitY=1;exitDx=0;exitDy=0;" edge="1" parent="1" source="hy1C9iSK5-kPFBmdTb-A-18" target="hy1C9iSK5-kPFBmdTb-A-18">
          <mxGeometry width="50" height="50" relative="1" as="geometry">
            <mxPoint x="130" y="660" as="sourcePoint" />
            <mxPoint x="180" y="610" as="targetPoint" />
          </mxGeometry>
        </mxCell>
      </root>
    </mxGraphModel>
  </diagram>
  <diagram id="gKkSgGuTDK8tn0H0V4SA" name="第 2 页">
    <mxGraphModel grid="1" page="0" gridSize="10" guides="1" tooltips="1" connect="1" arrows="1" fold="1" pageScale="1" pageWidth="827" pageHeight="1169" math="0" shadow="0">
      <root>
        <mxCell id="0" />
        <mxCell id="1" parent="0" />
      </root>
    </mxGraphModel>
  </diagram>
  <diagram id="hDEhHZ6gkwoZA9xHeRo-" name="第 3 页">
    <mxGraphModel dx="1396" dy="1004" grid="0" gridSize="10" guides="1" tooltips="1" connect="1" arrows="1" fold="1" page="0" pageScale="1" pageWidth="827" pageHeight="1169" math="0" shadow="0">
      <root>
        <mxCell id="0" />
        <mxCell id="1" parent="0" />
        <mxCell id="iTWW-QAXiyCc45ue7ln9-1" value="" style="html=1;dashed=0;whiteSpace=wrap;" parent="1" vertex="1">
          <mxGeometry x="-40" y="-200" width="130" height="50" as="geometry" />
        </mxCell>
        <mxCell id="c9KLHv7RmFQYu2eJCyQw-3" value="" style="endArrow=none;html=1;rounded=0;" edge="1" parent="1">
          <mxGeometry width="50" height="50" relative="1" as="geometry">
            <mxPoint x="-40" y="-100" as="sourcePoint" />
            <mxPoint x="-40" y="-270" as="targetPoint" />
          </mxGeometry>
        </mxCell>
        <mxCell id="c9KLHv7RmFQYu2eJCyQw-6" value="" style="endArrow=none;html=1;rounded=0;exitX=1;exitY=0.5;exitDx=0;exitDy=0;" edge="1" parent="1" source="iTWW-QAXiyCc45ue7ln9-1">
          <mxGeometry width="50" height="50" relative="1" as="geometry">
            <mxPoint x="230" y="-110" as="sourcePoint" />
            <mxPoint x="160" y="-175" as="targetPoint" />
          </mxGeometry>
        </mxCell>
        <mxCell id="c9KLHv7RmFQYu2eJCyQw-7" value="" style="endArrow=none;html=1;rounded=0;" edge="1" parent="1">
          <mxGeometry width="50" height="50" relative="1" as="geometry">
            <mxPoint x="160" y="80" as="sourcePoint" />
            <mxPoint x="160" y="-390" as="targetPoint" />
          </mxGeometry>
        </mxCell>
        <mxCell id="c9KLHv7RmFQYu2eJCyQw-9" value="" style="html=1;dashed=0;whiteSpace=wrap;" vertex="1" parent="1">
          <mxGeometry x="160" y="-360" width="100" height="50" as="geometry" />
        </mxCell>
        <mxCell id="c9KLHv7RmFQYu2eJCyQw-10" value="" style="html=1;dashed=0;whiteSpace=wrap;" vertex="1" parent="1">
          <mxGeometry x="160" y="-250" width="100" height="50" as="geometry" />
        </mxCell>
        <mxCell id="c9KLHv7RmFQYu2eJCyQw-11" value="&lt;span style=&quot;color: rgba(0, 0, 0, 0); font-family: monospace; font-size: 0px; text-align: start; text-wrap-mode: nowrap;&quot;&gt;%3CmxGraphModel%3E%3Croot%3E%3CmxCell%20id%3D%220%22%2F%3E%3CmxCell%20id%3D%221%22%20parent%3D%220%22%2F%3E%3CmxCell%20id%3D%222%22%20value%3D%221.%E9%87%87%E9%9B%86%E6%A8%A1%E5%9D%97%22%20style%3D%22rounded%3D0%3BwhiteSpace%3Dwrap%3Bhtml%3D1%3B%22%20vertex%3D%221%22%20parent%3D%221%22%3E%3CmxGeometry%20x%3D%22160%22%20y%3D%22-360%22%20width%3D%2280%22%20height%3D%2250%22%20as%3D%22geometry%22%2F%3E%3C%2FmxCell%3E%3C%2Froot%3E%3C%2FmxGraphModel%3E&lt;/span&gt;" style="html=1;dashed=0;whiteSpace=wrap;" vertex="1" parent="1">
          <mxGeometry x="160" y="-150" width="100" height="50" as="geometry" />
        </mxCell>
        <mxCell id="c9KLHv7RmFQYu2eJCyQw-12" value="" style="html=1;dashed=0;whiteSpace=wrap;" vertex="1" parent="1">
          <mxGeometry x="160" y="-40" width="100" height="50" as="geometry" />
        </mxCell>
        <mxCell id="c9KLHv7RmFQYu2eJCyQw-14" value="" style="endArrow=none;html=1;rounded=0;entryX=0.75;entryY=0;entryDx=0;entryDy=0;exitX=0.75;exitY=1;exitDx=0;exitDy=0;" edge="1" parent="1" source="c9KLHv7RmFQYu2eJCyQw-10" target="c9KLHv7RmFQYu2eJCyQw-10">
          <mxGeometry width="50" height="50" relative="1" as="geometry">
            <mxPoint x="220" y="-120" as="sourcePoint" />
            <mxPoint x="270" y="-170" as="targetPoint" />
          </mxGeometry>
        </mxCell>
        <mxCell id="c9KLHv7RmFQYu2eJCyQw-15" value="" style="endArrow=none;html=1;rounded=0;entryX=0.75;entryY=0;entryDx=0;entryDy=0;exitX=0.75;exitY=1;exitDx=0;exitDy=0;" edge="1" parent="1" source="c9KLHv7RmFQYu2eJCyQw-11" target="c9KLHv7RmFQYu2eJCyQw-11">
          <mxGeometry width="50" height="50" relative="1" as="geometry">
            <mxPoint x="220" y="-130" as="sourcePoint" />
            <mxPoint x="270" y="-180" as="targetPoint" />
          </mxGeometry>
        </mxCell>
        <mxCell id="c9KLHv7RmFQYu2eJCyQw-16" value="" style="endArrow=none;html=1;rounded=0;entryX=0.75;entryY=0;entryDx=0;entryDy=0;exitX=0.75;exitY=1;exitDx=0;exitDy=0;" edge="1" parent="1" source="c9KLHv7RmFQYu2eJCyQw-12" target="c9KLHv7RmFQYu2eJCyQw-12">
          <mxGeometry width="50" height="50" relative="1" as="geometry">
            <mxPoint x="245" y="-80" as="sourcePoint" />
            <mxPoint x="245" y="-130" as="targetPoint" />
          </mxGeometry>
        </mxCell>
        <mxCell id="c9KLHv7RmFQYu2eJCyQw-18" value="" style="rounded=0;whiteSpace=wrap;html=1;" vertex="1" parent="1">
          <mxGeometry x="60" y="-200" width="30" height="50" as="geometry" />
        </mxCell>
        <mxCell id="c9KLHv7RmFQYu2eJCyQw-19" value="空气质量信息采集与发布系统" style="rounded=0;whiteSpace=wrap;html=1;" vertex="1" parent="1">
          <mxGeometry x="-40" y="-200" width="110" height="50" as="geometry" />
        </mxCell>
        <mxCell id="c9KLHv7RmFQYu2eJCyQw-20" value="" style="rounded=0;whiteSpace=wrap;html=1;" vertex="1" parent="1">
          <mxGeometry x="230" y="-360" width="30" height="50" as="geometry" />
        </mxCell>
        <mxCell id="c9KLHv7RmFQYu2eJCyQw-22" value="1.采集模块" style="rounded=0;whiteSpace=wrap;html=1;" vertex="1" parent="1">
          <mxGeometry x="160" y="-360" width="80" height="50" as="geometry" />
        </mxCell>
        <mxCell id="c9KLHv7RmFQYu2eJCyQw-24" value="2.处理与存储模块" style="rounded=0;whiteSpace=wrap;html=1;" vertex="1" parent="1">
          <mxGeometry x="160" y="-250" width="80" height="50" as="geometry" />
        </mxCell>
        <mxCell id="c9KLHv7RmFQYu2eJCyQw-25" value="3.发布模块" style="rounded=0;whiteSpace=wrap;html=1;" vertex="1" parent="1">
          <mxGeometry x="160" y="-150" width="80" height="50" as="geometry" />
        </mxCell>
        <mxCell id="c9KLHv7RmFQYu2eJCyQw-26" value="4.用户管理与权限模块" style="rounded=0;whiteSpace=wrap;html=1;" vertex="1" parent="1">
          <mxGeometry x="160" y="-40" width="80" height="50" as="geometry" />
        </mxCell>
        <mxCell id="c9KLHv7RmFQYu2eJCyQw-27" value="" style="endArrow=none;html=1;rounded=0;exitX=1;exitY=0.5;exitDx=0;exitDy=0;" edge="1" parent="1" source="c9KLHv7RmFQYu2eJCyQw-20">
          <mxGeometry width="50" height="50" relative="1" as="geometry">
            <mxPoint x="240" y="-110" as="sourcePoint" />
            <mxPoint x="320" y="-335" as="targetPoint" />
          </mxGeometry>
        </mxCell>
        <mxCell id="c9KLHv7RmFQYu2eJCyQw-28" value="" style="endArrow=none;html=1;rounded=0;" edge="1" parent="1">
          <mxGeometry width="50" height="50" relative="1" as="geometry">
            <mxPoint x="320" y="-280" as="sourcePoint" />
            <mxPoint x="320" y="-390" as="targetPoint" />
          </mxGeometry>
        </mxCell>
        <mxCell id="c9KLHv7RmFQYu2eJCyQw-36" value="" style="endArrow=none;html=1;rounded=0;" edge="1" parent="1">
          <mxGeometry width="50" height="50" relative="1" as="geometry">
            <mxPoint x="320" y="-380" as="sourcePoint" />
            <mxPoint x="510" y="-380" as="targetPoint" />
            <Array as="points">
              <mxPoint x="400" y="-380" />
            </Array>
          </mxGeometry>
        </mxCell>
        <mxCell id="c9KLHv7RmFQYu2eJCyQw-38" value="" style="endArrow=none;html=1;rounded=0;" edge="1" parent="1">
          <mxGeometry width="50" height="50" relative="1" as="geometry">
            <mxPoint x="320" y="-300" as="sourcePoint" />
            <mxPoint x="510" y="-300" as="targetPoint" />
          </mxGeometry>
        </mxCell>
        <mxCell id="c9KLHv7RmFQYu2eJCyQw-58" value="" style="endArrow=none;html=1;rounded=0;" edge="1" parent="1">
          <mxGeometry width="50" height="50" relative="1" as="geometry">
            <mxPoint x="510" y="-300" as="sourcePoint" />
            <mxPoint x="510" y="-380" as="targetPoint" />
            <Array as="points">
              <mxPoint x="460" y="-340" />
            </Array>
          </mxGeometry>
        </mxCell>
        <mxCell id="c9KLHv7RmFQYu2eJCyQw-67" value="" style="verticalLabelPosition=bottom;verticalAlign=top;html=1;shape=mxgraph.basic.rect;fillColor=#ffffff;fillColor2=none;strokeColor=#000000;strokeWidth=1;size=20;indent =5;right=0;" vertex="1" parent="1">
          <mxGeometry x="320" y="-380" width="140" height="80" as="geometry" />
        </mxCell>
        <mxCell id="c9KLHv7RmFQYu2eJCyQw-68" value="从第三方API获取数据" style="text;html=1;align=center;verticalAlign=middle;whiteSpace=wrap;rounded=0;fontFamily=Helvetica;fontSize=12;fontColor=default;" vertex="1" parent="1">
          <mxGeometry x="350" y="-355" width="100" height="30" as="geometry" />
        </mxCell>
      </root>
    </mxGraphModel>
  </diagram>
</mxfile>
